PathFileType	4	(X/Y/Z)	C:\Users\WrightLab\Desktop\Jo\P3_11.trc
DataRate	CameraRate	NumFrames	NumMarkers	Units	OrigDataRate	OrigDataStartFrame	OrigNumFrames
100.00	100.00	       28	19	mm	100.00	1	       653
Frame#	Time	Headset_Front			Headset_Back			Headset_Left			Headset_Right			Left_Shoulder			Right_Shoulder			Sternum			C7			Left Elbow			Right Elbow			Left Wrist			Right Wrist			Left ASIS			Right ASIS			S2			Left Knee			Right Knee			Left Ankle			Right Ankle			
		X1	Y1	Z1	X2	Y2	Z2	X3	Y3	Z3	X4	Y4	Z4	X5	Y5	Z5	X6	Y6	Z6	X7	Y7	Z7	X8	Y8	Z8	X9	Y9	Z9	X10	Y10	Z10	X11	Y11	Z11	X12	Y12	Z12	X13	Y13	Z13	X14	Y14	Z14	X15	Y15	Z15	X16	Y16	Z16	X17	Y17	Z17	X18	Y18	Z18	X19	Y19	Z19	

1	0.000													-442.04532	1273.98071	-1446.03625	-801.95447	1280.67664	-1505.18469	-637.39722	1149.81384	-1367.49133				-376.82605	941.87671	-1474.36011				-401.39728	748.10217	-1402.88940	-853.35486	734.73322	-1438.73999	-526.91925	810.39868	-1392.15759							-529.93677	425.62143	-1279.98450	-720.55597	369.43564	-1573.09375	-538.23309	95.45575	-1247.64746				
2	0.010													-442.22485	1271.76355	-1435.82043	-802.52789	1278.90857	-1496.43420	-637.76794	1148.15686	-1362.75610				-376.78958	940.60468	-1467.08838				-399.62314	748.44794	-1389.78870	-853.72815	733.55695	-1435.48132	-528.25818	808.33698	-1389.35791							-532.26318	423.91376	-1274.17529	-721.28223	369.00143	-1569.32043	-540.04565	93.19205	-1236.96228				
3	0.020													-443.01962	1272.62219	-1432.35254	-802.43396	1279.03699	-1492.27161	-638.55457	1148.05322	-1350.52795				-376.73105	942.20844	-1465.74683				-397.27249	747.68317	-1383.89941	-852.70746	733.81702	-1431.35278	-529.46234	806.95874	-1377.48804							-532.35919	421.81577	-1273.35925	-722.15570	367.75790	-1565.97888	-541.24707	94.61581	-1220.35449				
4	0.030													-443.09933	1270.44128	-1421.97546	-802.23212	1277.30310	-1483.90723	-637.74536	1146.77161	-1345.02051				-375.61575	939.53510	-1455.49634				-397.57498	745.09662	-1384.12134	-852.50854	733.52283	-1422.99512	-530.68097	805.62366	-1370.36304							-533.86517	420.47092	-1267.31335	-722.42566	367.42099	-1563.74744	-542.28217	96.28186	-1207.11804				
5	0.040													-442.43402	1269.48914	-1414.88269	-802.27216	1276.83496	-1477.54993	-637.81348	1146.71545	-1334.74622				-374.83261	938.85297	-1449.08521				-395.98648	745.14282	-1372.11096	-852.24567	732.20508	-1418.20923	-531.37604	805.13434	-1363.04016							-536.46399	419.74142	-1260.68359	-723.33362	368.07047	-1558.16370	-542.96808	96.67665	-1194.36865				
6	0.050													-442.39014	1269.68274	-1409.80103	-801.39563	1276.93506	-1473.27637	-638.45630	1146.39661	-1327.49341				-375.00266	938.53888	-1442.54419				-395.07220	745.39105	-1363.83008	-852.46912	730.00903	-1413.49438	-532.53827	801.83948	-1357.49304							-537.46301	417.89606	-1255.68140	-723.61407	368.21164	-1555.60693	-544.13794	96.74084	-1186.63416				
7	0.060													-442.30844	1267.65710	-1398.81018	-801.99213	1274.31055	-1460.97009	-639.11798	1144.89697	-1322.00171				-374.73398	938.60742	-1437.14307				-393.86639	744.21594	-1357.58618	-851.98621	729.88678	-1411.54980	-533.21759	801.78540	-1350.30273							-540.26447	419.55011	-1244.23193	-724.08148	365.77100	-1551.14331	-545.65222	95.76321	-1180.16626				
8	0.070													-441.97147	1268.56848	-1395.09839	-801.56189	1274.69519	-1455.63403	-639.11176	1144.14746	-1317.61670				-373.60202	937.25220	-1428.12292				-393.66873	740.64557	-1362.36462	-851.60229	728.62061	-1400.81250	-532.72339	802.22662	-1339.16040							-541.40149	415.45804	-1242.70032	-723.79913	364.30948	-1548.68469	-546.60480	93.50018	-1174.61133				
9	0.080													-441.87646	1265.45801	-1380.80664	-801.02869	1274.12500	-1447.97864	-638.41412	1144.77625	-1303.21875				-373.20343	936.83972	-1420.75977				-392.98752	742.12384	-1343.98279	-852.52118	727.44519	-1401.45776	-533.63495	801.59406	-1331.76782							-543.28766	419.79868	-1223.63928	-724.65924	365.78888	-1540.65283	-547.08252	92.80618	-1169.13220				
10	0.090													-441.38092	1266.41394	-1376.81348	-800.45465	1273.58081	-1440.20837	-637.44080	1144.09119	-1295.16675				-372.47928	935.87830	-1412.28503				-390.90814	741.81952	-1338.24976	-853.27478	728.64673	-1385.28857	-533.61420	800.52130	-1324.45398							-545.09833	417.44485	-1221.21729	-725.01196	366.79697	-1528.87634	-548.99280	89.72200	-1167.53430				
11	0.100													-441.25351	1266.28613	-1369.48828	-799.85266	1274.16882	-1434.06567	-637.64276	1144.43518	-1287.25623				-372.39282	936.78253	-1407.01819				-391.08582	741.38129	-1329.79773	-851.59229	729.07922	-1380.68054	-533.68512	799.89276	-1314.52954							-546.13342	417.22574	-1207.29431	-724.79590	367.13913	-1524.16150	-549.33704	88.62751	-1164.52856				
12	0.110													-440.39862	1265.54810	-1360.89563	-798.83105	1275.31042	-1429.31226	-637.91522	1144.92480	-1279.12988				-371.33401	934.73676	-1395.73816				-390.91650	740.04370	-1323.73108	-851.16571	729.57306	-1374.28699	-535.71613	798.78992	-1306.76282							-547.78094	414.48828	-1206.51514	-724.47314	364.75308	-1520.33130	-551.55322	87.45689	-1163.09229				
13	0.120													-439.53336	1265.47607	-1353.37280	-799.10522	1273.17639	-1415.32178	-637.73499	1145.50476	-1270.90112				-371.13251	935.18170	-1388.78564	-873.55054	867.39410	-1364.07483	-389.62985	739.67072	-1315.77051	-852.85480	729.88757	-1367.84265	-535.86255	798.70013	-1298.61511							-547.67615	415.57663	-1192.60242	-725.44891	364.72672	-1512.64429	-552.43243	86.91765	-1157.52014				
14	0.130													-438.68790	1265.42773	-1345.79358	-798.08191	1274.52026	-1409.98840	-636.57452	1145.63416	-1262.92529				-371.35629	935.61255	-1381.94910	-872.96112	867.88806	-1356.23462	-390.25983	739.83167	-1307.52625	-852.24884	729.82758	-1359.93872	-534.57147	799.22412	-1287.53784							-549.15802	415.45230	-1186.64966	-726.28687	365.53415	-1505.28357	-552.94672	87.25038	-1153.80518				
15	0.140													-437.78738	1264.86316	-1336.58777	-797.70404	1275.79370	-1403.09485	-636.06555	1146.41528	-1254.60352				-370.46820	934.96973	-1371.61731	-872.87744	867.38489	-1346.38159	-389.66122	740.56696	-1299.01672	-853.60486	730.33594	-1352.85840	-535.92242	799.31354	-1280.37219							-550.50366	414.95349	-1178.79382	-726.90070	364.55957	-1499.68335	-554.24426	86.16986	-1152.01965				
16	0.150													-437.92877	1265.12842	-1327.67126	-797.00696	1276.86108	-1395.46033	-635.71716	1147.19312	-1246.38562				-370.27020	935.65985	-1363.87866	-872.64496	867.63885	-1337.10828	-388.44598	740.19287	-1288.90295	-854.21442	732.22675	-1346.57080	-536.10730	800.73895	-1269.07544							-549.94891	415.42853	-1172.27258	-727.46179	364.46384	-1494.45520	-555.07855	84.56187	-1148.55737				
17	0.160													-437.64465	1266.54797	-1321.72510	-796.00592	1278.52246	-1389.23657	-635.43353	1148.82959	-1237.50940				-369.78091	935.86060	-1354.55847	-872.37659	868.02527	-1327.47729	-387.39603	740.38068	-1281.88013	-855.02966	733.07672	-1339.86780	-535.65723	801.94843	-1261.41833							-550.69910	416.21057	-1162.19946	-728.45270	365.27725	-1486.96497	-553.83215	84.01937	-1146.50647				
18	0.170													-437.13327	1267.46741	-1314.49780	-796.32483	1278.93652	-1377.92688	-635.03009	1150.32080	-1228.70581				-369.86646	936.88354	-1347.18054	-872.18481	869.05365	-1318.53491	-387.27316	742.39478	-1270.79102	-855.23358	733.71466	-1332.24329	-534.81134	803.93719	-1249.65967							-551.46204	415.06000	-1158.30200	-728.97601	365.96481	-1476.03455	-553.97339	83.42523	-1144.87903				
19	0.180													-436.36896	1268.94934	-1308.37048	-795.60992	1280.09570	-1369.48352	-634.27783	1151.59497	-1219.94141				-368.83429	937.49341	-1337.45947	-872.04181	869.56738	-1307.86792	-387.16724	742.00427	-1263.31274	-856.40784	736.06598	-1324.90601	-535.62482	806.14520	-1239.30774							-550.99457	416.16135	-1149.52917	-728.50464	367.63470	-1466.84045	-554.15942	83.73708	-1142.30164				
20	0.190													-435.70584	1269.87280	-1300.21509	-794.90771	1280.46826	-1359.03198	-633.67847	1153.44519	-1212.54822				-368.74908	938.72882	-1328.79053	-872.09534	870.47321	-1297.46936	-387.28159	743.97327	-1251.89087	-856.62347	737.12787	-1318.00562	-535.44421	807.49176	-1230.59607							-550.63928	415.44162	-1144.47864	-729.59955	370.16968	-1454.94775	-554.01953	84.03838	-1140.07922				
21	0.200													-434.86023	1271.50049	-1293.48816	-794.94977	1282.64941	-1351.36499	-633.74847	1156.57520	-1205.08289				-369.32776	940.76532	-1321.45837	-872.12958	871.47632	-1286.21594	-386.77927	745.93683	-1243.55688	-858.18359	739.00427	-1309.42432	-534.05737	809.72626	-1218.26855							-549.99524	415.06235	-1140.69177	-730.73102	368.77600	-1444.02356	-554.38568	83.51416	-1139.71008				
22	0.210													-434.01614	1273.13770	-1286.72974	-794.83374	1284.86951	-1344.04382	-632.02344	1158.34924	-1195.83179				-368.23441	940.62933	-1308.81604	-871.97247	873.40198	-1276.02026	-386.66782	748.30457	-1232.42224	-859.41986	740.91766	-1300.85242	-533.57623	811.85358	-1209.07495							-550.01855	417.41794	-1128.55017	-732.91248	370.44534	-1428.84033	-554.85541	82.08998	-1139.63232				
23	0.220													-434.22778	1276.14331	-1281.67773	-793.82343	1286.83203	-1336.97192	-631.87396	1161.02637	-1188.11072				-367.46960	942.05554	-1299.29578	-872.26910	874.79944	-1265.18921	-387.08365	749.59009	-1220.87805	-859.82245	743.37720	-1293.32556	-534.29779	813.54456	-1199.31274							-550.27234	416.87573	-1124.47632	-735.67358	371.29276	-1416.35156	-554.10889	82.41061	-1137.17627				
24	0.230													-433.96048	1277.53149	-1272.48450	-793.07166	1288.17908	-1328.02588	-630.97296	1163.51428	-1179.47791				-367.87259	944.59973	-1290.91138	-872.44318	877.28711	-1255.86682	-386.75034	751.87946	-1211.71301	-861.45282	745.24536	-1284.35388	-533.00787	815.32129	-1187.82385							-551.57965	414.20612	-1124.14563	-737.99915	371.59891	-1402.63269	-554.06189	81.70247	-1136.11304				
25	0.240													-432.99438	1279.35730	-1264.92725	-793.37848	1291.21997	-1320.14539	-630.77600	1166.85156	-1171.71521				-367.49084	946.62885	-1281.50391	-872.89746	879.31342	-1245.77905	-387.03485	754.60010	-1199.35583	-862.08313	747.63232	-1275.15588	-532.18164	817.52032	-1179.86328							-552.88501	413.83401	-1118.87134	-741.29626	369.63913	-1388.53406	-554.48773	81.42622	-1134.76929				
26	0.250													-432.42499	1281.74536	-1258.38208	-792.77344	1293.47803	-1314.44861	-629.38989	1170.80298	-1163.52844				-367.55728	949.65045	-1273.85315	-872.98413	882.32080	-1236.48755	-388.37930	757.39215	-1189.52161	-863.67078	750.50793	-1266.13464	-532.94312	819.86017	-1170.38684							-552.84515	413.69141	-1109.35059	-744.45160	371.12720	-1370.44580	-554.44171	80.58504	-1133.89893				
27	0.260													-431.57071	1283.61719	-1250.75049	-791.74744	1296.19836	-1309.48547	-628.68195	1173.10486	-1155.47656				-366.91071	950.74756	-1262.57202	-873.47754	884.56506	-1226.95898	-387.99847	760.21631	-1177.37244	-864.71338	753.18280	-1256.17468	-533.53827	820.28223	-1160.24414							-552.41425	413.60870	-1108.81299	-747.79950	369.44522	-1356.41370	-554.11725	81.31046	-1132.56458				
28	0.270													-431.42218	1285.48840	-1243.09875	-790.73553	1298.08398	-1302.64624	-629.12482	1176.38745	-1147.14929				-366.96271	952.61755	-1252.64575	-873.93506	886.92584	-1218.25867	-388.67886	763.53961	-1165.92578	-865.12134	754.53558	-1246.17102	-532.03394	822.21301	-1151.20544							-552.55646	414.44244	-1100.50269	-750.98853	369.49329	-1338.31177	-554.70093	80.03013	-1133.33240				
